<?xml version="1.0" standalone="no"?>
<!DOCTYPE svg PUBLIC "-//W3C//DTD SVG 20010904//EN"
 "http://www.w3.org/TR/2001/REC-SVG-20010904/DTD/svg10.dtd">
<svg version="1.0" xmlns="http://www.w3.org/2000/svg"
 width="209.000000pt" height="209.000000pt" viewBox="0 0 209.000000 209.000000"
 preserveAspectRatio="xMidYMid meet">
<metadata>
Created by potrace 1.14, written by Peter Selinger 2001-2017
</metadata>
<g transform="translate(0.000000,209.000000) scale(0.100000,-0.100000)"
fill="#000000" stroke="none">
<path d="M1458 1930 c-2 -8 -4 -48 -3 -87 l1 -73 -46 -1 c-25 0 -74 -1 -110
-2 l-65 -2 0 -370 0 -369 110 1 111 2 -1 -87 0 -86 38 -2 37 -2 0 87 0 88 88
-2 c48 0 97 1 110 3 l22 4 0 370 0 369 -72 -1 c-40 -1 -90 -1 -110 -1 l-38 1
0 84 0 84 -34 4 c-25 3 -36 0 -38 -12z"/>
<path d="M689 1727 c-1 -12 -2 -52 -2 -89 l-1 -67 -76 0 c-41 0 -91 0 -111 0
l-37 -1 2 -232 c1 -178 4 -233 14 -234 6 -1 56 -2 111 -3 l98 -1 -1 -82 -1
-83 38 -3 37 -3 0 85 0 86 109 0 c78 0 110 4 113 13 3 10 3 427 -1 450 0 4
-50 7 -111 7 l-109 0 -3 87 -3 87 -32 2 c-28 2 -33 -1 -34 -19z"/>
<path d="M82 805 c-23 -12 -45 -25 -49 -28 -3 -3 11 -36 32 -73 135 -246 376
-447 638 -534 128 -42 176 -48 363 -50 156 -1 195 2 271 21 302 74 559 261
722 525 17 28 31 59 31 67 0 19 -102 75 -107 60 -15 -44 -122 -184 -198 -259
-152 -149 -316 -236 -520 -275 -95 -19 -254 -26 -320 -14 -181 32 -303 77
-433 162 -140 91 -291 257 -346 381 -10 23 -24 42 -30 41 -6 -1 -30 -11 -54
-24z"/>
</g>
</svg>
