<svg width="70" height="70" viewBox="0 0 70 70" fill="none" xmlns="http://www.w3.org/2000/svg">
<path fill-rule="evenodd" clip-rule="evenodd" d="M3 9.75C3 6.02208 6.02208 3 9.75 3H59.25C62.9779 3 66 6.02208 66 9.75C66 13.4779 62.9779 16.5 59.25 16.5H9.75C6.02208 16.5 3 13.4779 3 9.75ZM9.75 7.5C8.50736 7.5 7.5 8.50736 7.5 9.75C7.5 10.9926 8.50736 12 9.75 12H59.25C60.4926 12 61.5 10.9926 61.5 9.75C61.5 8.50736 60.4926 7.5 59.25 7.5H9.75Z" fill="#222831"/>
<path fill-rule="evenodd" clip-rule="evenodd" d="M3 45.75C3 42.0221 6.02208 39 9.75 39H59.25C62.9779 39 66 42.0221 66 45.75C66 49.4779 62.9779 52.5 59.25 52.5H9.75C6.02208 52.5 3 49.4779 3 45.75ZM9.75 43.5C8.50736 43.5 7.5 44.5074 7.5 45.75C7.5 46.9926 8.50736 48 9.75 48H59.25C60.4926 48 61.5 46.9926 61.5 45.75C61.5 44.5074 60.4926 43.5 59.25 43.5H9.75Z" fill="#222831"/>
<path fill-rule="evenodd" clip-rule="evenodd" d="M7.5 14.25C7.5 13.0074 8.50736 12 9.75 12H59.25C60.4926 12 61.5 13.0074 61.5 14.25V41.25C61.5 42.4926 60.4926 43.5 59.25 43.5H9.75C8.50736 43.5 7.5 42.4926 7.5 41.25V14.25ZM12 16.5V39H57V16.5H12Z" fill="#222831"/>
<path fill-rule="evenodd" clip-rule="evenodd" d="M34.5 48C35.2228 48 35.9016 48.3472 36.3245 48.9333L46.0673 62.4333C46.7945 63.4409 46.5672 64.8473 45.5595 65.5745C44.5519 66.3017 43.1455 66.0743 42.4183 65.0667L34.5 54.0948L26.5817 65.0667C25.8545 66.0743 24.4482 66.3017 23.4405 65.5745C22.4329 64.8473 22.2056 63.4409 22.9328 62.4333L32.6755 48.9333C33.0985 48.3472 33.7773 48 34.5 48Z" fill="#222831"/>
<path fill-rule="evenodd" clip-rule="evenodd" d="M51.9086 19.4796C52.7483 20.3957 52.6864 21.8189 51.7704 22.6586L38.2704 35.0336C37.4868 35.752 36.3073 35.8238 35.4423 35.2059L29.0013 30.6052L22.4643 36.2083C21.5208 37.017 20.1004 36.9078 19.2917 35.9643C18.483 35.0208 18.5923 33.6004 19.5358 32.7917L27.4108 26.0417C28.1966 25.3681 29.3406 25.3175 30.1828 25.9191L36.5739 30.4842L48.7297 19.3414C49.6457 18.5017 51.069 18.5636 51.9086 19.4796Z" fill="#32E0C4"/>
</svg>
