<svg width="70" height="70" viewBox="0 0 70 70" fill="none" xmlns="http://www.w3.org/2000/svg">
<path fill-rule="evenodd" clip-rule="evenodd" d="M50.5869 27.5525C51.6987 27.5538 52.6946 28.248 53.0907 29.2979C53.1938 29.5712 53.2789 29.8535 53.3459 30.1436L53.3459 30.1436C53.4594 30.6351 54.0171 30.8686 54.4412 30.6021C59.9184 27.1611 66.2407 33.5505 62.8358 39.0858C62.5722 39.5145 62.8032 40.0781 63.2895 40.1928C69.5701 41.6736 69.5701 50.7097 63.2895 52.1906C62.8032 52.3053 62.5722 52.8689 62.8358 53.2975C66.2407 58.8328 59.9184 65.2222 54.4412 61.7812C54.0171 61.5148 53.4594 61.7482 53.3459 62.2397C51.8806 68.5869 42.9395 68.5869 41.4741 62.2397C41.3607 61.7482 40.803 61.5148 40.3789 61.7812C34.9017 65.2222 28.5794 58.8328 31.9842 53.2975C32.2479 52.8689 32.0169 52.3053 31.5306 52.1906C31.5306 52.1906 31.5306 52.1906 31.5305 52.1906M50.5869 27.5525C49.4751 27.5512 48.4776 28.243 48.0791 29.292L50.5869 27.5525ZM48.0791 29.292C47.8974 29.77 47.525 30.184 46.8065 30.3534L48.0791 29.292ZM50.1966 34.7476C49.5567 35.1405 48.8314 35.4446 48.0257 35.6345C46.9277 35.8934 46.3526 37.0718 46.7452 38.0847C46.9647 38.0665 47.1864 38.0572 47.41 38.0572C51.8554 38.0572 55.459 41.6991 55.459 46.1917C55.459 50.6842 51.8554 54.3261 47.41 54.3261C44.1168 54.3261 41.2868 52.3284 40.0401 49.4657C39.0179 49.3498 37.9871 49.0002 37.0067 48.3843L38.127 46.5629L37.0067 48.3843C36.4798 48.0532 35.8701 48.0322 35.3564 48.2463C37.5191 50.1418 38.1968 53.4695 36.5414 56.1606C36.4009 56.3889 36.3992 56.5415 36.4142 56.641C36.4336 56.7695 36.5046 56.9289 36.6451 57.0709C36.7856 57.2129 36.9433 57.2847 37.0704 57.3042C37.169 57.3194 37.3199 57.3176 37.5459 57.1757C41.0906 54.9487 45.7515 56.8998 46.6998 61.0076C46.7602 61.2695 46.8657 61.3786 46.946 61.4383C47.0496 61.5153 47.2113 61.5772 47.41 61.5772C47.6087 61.5772 47.7705 61.5153 47.8741 61.4383C47.9543 61.3786 48.0598 61.2695 48.1203 61.0076C49.0686 56.8998 53.7295 54.9487 57.2742 57.1757C57.5002 57.3176 57.6511 57.3194 57.7496 57.3042C57.8767 57.2847 58.0345 57.2129 58.175 57.0709C58.3155 56.9289 58.3865 56.7695 58.4059 56.641C58.4209 56.5415 58.4191 56.3889 58.2786 56.1606C56.0751 52.5782 58.0057 47.8679 62.0703 46.9095C62.3295 46.8484 62.4374 46.7418 62.4965 46.6606C62.5727 46.556 62.6339 46.3925 62.6339 46.1917C62.6339 45.9909 62.5727 45.8274 62.4965 45.7227C62.4374 45.6416 62.3295 45.535 62.0703 45.4739C58.0057 44.5155 56.0751 39.8051 58.2786 36.2228C58.4191 35.9944 58.4209 35.8419 58.4059 35.7423C58.3865 35.6138 58.3155 35.4545 58.175 35.3125C58.0345 35.1705 57.8767 35.0987 57.7496 35.0791C57.6511 35.0639 57.5002 35.0657 57.2742 35.2077C54.9393 36.6746 52.12 36.3287 50.1966 34.7476ZM46.8065 30.3534C42.0178 31.4825 39.7433 37.0319 42.3394 41.2524L46.8065 30.3534ZM47.41 43.4802C47.0135 43.4802 46.6439 43.5654 46.3121 43.7161C45.582 44.0479 44.7434 44.0328 44.0254 43.675C43.3074 43.3173 42.785 42.6541 42.6009 41.8668C42.5589 41.6875 42.4801 41.4812 42.3394 41.2524M47.41 43.4802C48.8918 43.4802 50.093 44.6942 50.093 46.1917L47.41 43.4802ZM29.0552 48.2932C30.1724 43.4537 35.6635 41.155 39.8397 43.7787C40.3956 44.1279 40.8772 44.1382 41.2777 44.0149C42.0567 43.775 42.9013 43.9057 43.5737 44.3701C44.246 44.8345 44.6732 45.5824 44.7349 46.403C44.8401 47.8004 45.9989 48.9031 47.41 48.9031C48.8918 48.9031 50.093 47.6892 50.093 46.1917M29.0552 48.2932L31.1676 48.7913L29.0552 48.2932ZM31.5306 52.1906C31.1772 52.1073 30.8358 51.9961 30.5085 51.8578C29.215 51.3111 28.5562 49.85 28.9965 48.5047C29.0179 48.4394 29.0377 48.369 29.0552 48.2932L31.1676 48.7913" fill="#32E0C4"/>
<path fill-rule="evenodd" clip-rule="evenodd" d="M20.2943 7.60836C22.0206 0.13055 32.5544 0.130546 34.2808 7.60836C34.5632 8.83157 35.9511 9.41257 37.0066 8.74943C43.4594 4.69548 50.9079 12.2231 46.8965 18.7443C46.2404 19.8111 46.8153 21.2137 48.0256 21.4991C55.4249 23.2438 55.4249 33.8894 48.0256 35.6341C46.8153 35.9195 46.2404 37.3221 46.8965 38.3889C50.9079 44.9101 43.4594 52.4377 37.0066 48.3838C35.9511 47.7206 34.5632 48.3016 34.2808 49.5248C32.5544 57.0027 22.0206 57.0027 20.2943 49.5248C20.0119 48.3016 18.624 47.7206 17.5685 48.3838C11.1157 52.4377 3.66717 44.9101 7.67853 38.3889C8.3347 37.3221 7.75981 35.9195 6.54944 35.6341C-0.849815 33.8894 -0.849812 23.2438 6.54944 21.4991C7.75981 21.2137 8.33471 19.8111 7.67853 18.7443C3.66717 12.2231 11.1157 4.69548 17.5685 8.74943C18.624 9.41257 20.0119 8.83157 20.2943 7.60836ZM29.0551 8.8405C28.6188 6.95044 25.9563 6.95043 25.5199 8.8405C24.4027 13.68 18.9116 15.9786 14.7355 13.355C13.1045 12.3303 11.2218 14.233 12.2357 15.8813C14.8318 20.1017 12.5573 25.6511 7.76865 26.7803C5.89843 27.2212 5.89844 29.912 7.76865 30.353C12.5573 31.4821 14.8318 37.0315 12.2357 41.2519C11.2218 42.9002 13.1045 44.8029 14.7355 43.7782C18.9116 41.1546 24.4027 43.4532 25.5199 48.2927C25.9563 50.1828 28.6188 50.1828 29.0551 48.2927C30.1724 43.4532 35.6635 41.1546 39.8396 43.7782C41.4706 44.8029 43.3532 42.9002 42.3393 41.2519C39.7433 37.0315 42.0178 31.4821 46.8064 30.353C48.6766 29.912 48.6766 27.2212 46.8064 26.7803C42.0178 25.6511 39.7433 20.1017 42.3393 15.8813C43.3532 14.233 41.4706 12.3303 39.8396 13.355C35.6635 15.9786 30.1724 13.68 29.0551 8.8405Z" fill="#222831"/>
<path fill-rule="evenodd" clip-rule="evenodd" d="M27.2876 24.4994C25.0649 24.4994 23.2631 26.3203 23.2631 28.5666C23.2631 30.8128 25.0649 32.6338 27.2876 32.6338C29.5102 32.6338 31.3121 30.8128 31.3121 28.5666C31.3121 26.3203 29.5102 24.4994 27.2876 24.4994ZM17.8971 28.5666C17.8971 23.3253 22.1014 19.0764 27.2876 19.0764C32.4738 19.0764 36.6781 23.3253 36.6781 28.5666C36.6781 33.8079 32.4738 38.0568 27.2876 38.0568C22.1014 38.0568 17.8971 33.8079 17.8971 28.5666Z" fill="#32E0C4"/>
</svg>
