<svg width="70" height="70" viewBox="0 0 70 70" fill="none" xmlns="http://www.w3.org/2000/svg">
<path fill-rule="evenodd" clip-rule="evenodd" d="M48.2857 30.5715C48.2857 29.3485 49.2771 28.3572 50.5 28.3572H61.5714C62.7943 28.3572 63.7857 29.3485 63.7857 30.5715V63.7857C63.7857 65.0087 62.7943 66 61.5714 66H50.5C49.2771 66 48.2857 65.0087 48.2857 63.7857V30.5715ZM52.7143 32.7857V61.5715H59.3571V32.7857H52.7143ZM26.1429 39.4286C26.1429 38.2057 27.1342 37.2143 28.3571 37.2143H39.4286C40.6515 37.2143 41.6429 38.2057 41.6429 39.4286V63.7857C41.6429 65.0087 40.6515 66 39.4286 66H28.3571C27.1342 66 26.1429 65.0087 26.1429 63.7857V39.4286ZM30.5714 41.6429V61.5715H37.2143V41.6429H30.5714ZM4 48.2857C4 47.0628 4.99137 46.0715 6.21429 46.0715H17.2857C18.5086 46.0715 19.5 47.0628 19.5 48.2857V63.7857C19.5 65.0087 18.5086 66 17.2857 66H6.21429C4.99137 66 4 65.0087 4 63.7857V48.2857ZM8.42857 50.5V61.5715H15.0714V50.5H8.42857Z" fill="#222831"/>
<path fill-rule="evenodd" clip-rule="evenodd" d="M52.7144 6.21425C52.7144 4.99135 53.7057 4 54.9286 4H63.7857C65.0086 4 66 4.99135 66 6.21425V15.0712C66 16.2941 65.0086 17.2855 63.7857 17.2855C62.5628 17.2855 61.5715 16.2941 61.5715 15.0712V11.145L45.3284 25.5832C44.5939 26.236 43.517 26.3267 42.6837 25.8059L26.0769 15.4268L7.29002 25.8638C6.22101 26.4577 4.87295 26.0725 4.27905 25.0035C3.68516 23.9345 4.07032 22.5865 5.13933 21.9926L25.0678 10.9214C25.7721 10.5301 26.6334 10.5523 27.3167 10.9793L43.6252 21.172L57.9618 8.42849H54.9286C53.7057 8.42849 52.7144 7.43714 52.7144 6.21425Z" fill="#32E0C4"/>
</svg>
