<svg width="70" height="70" viewBox="0 0 70 70" fill="none" xmlns="http://www.w3.org/2000/svg">
<path fill-rule="evenodd" clip-rule="evenodd" d="M49.6759 3.40103C50.7708 2.67291 52.2531 2.96376 52.9866 4.05066L67.5961 25.6987C68.3296 26.7856 68.0366 28.257 66.9416 28.9851L49.5609 40.543C49.168 40.8043 48.7057 40.9438 48.2328 40.9438H41.4196C40.7353 40.9438 40.0838 40.6521 39.6309 40.1429C39.1779 39.6337 38.9669 38.956 39.0516 38.2819C39.1369 37.6029 39.181 36.9102 39.181 36.2062C39.181 29.5406 35.2188 23.7888 29.4945 21.154C28.7123 20.7939 28.1866 20.043 28.1193 19.1896C28.0521 18.3363 28.4539 17.5134 29.1703 17.037L49.6759 3.40103ZM34.9837 18.8735C40.4127 22.7404 43.9536 29.0611 43.9536 36.2062L47.5074 36.2062L62.3028 26.3675L50.3496 8.65542L34.9837 18.8735Z" fill="#222831"/>
<path fill-rule="evenodd" clip-rule="evenodd" d="M39.0517 38.2815C39.2006 37.0958 40.2159 36.2058 41.4197 36.2058H60.6579C61.9758 36.2058 63.0442 37.2664 63.0442 38.5746V64.6313C63.0442 65.9395 61.9758 67.0001 60.6579 67.0001H17.7042C16.3863 67.0001 15.3179 65.9395 15.3179 64.6313V54.5591C15.3179 53.8268 15.6591 53.1356 16.2422 52.687C16.8252 52.2383 17.5845 52.0825 18.299 52.2651C19.6317 52.6056 21.0312 52.7873 22.4768 52.7873C30.9934 52.7873 38.0245 46.4585 39.0517 38.2815ZM43.421 40.9434C41.2498 50.4382 32.6986 57.5249 22.4768 57.5249C21.6708 57.5249 20.8746 57.4807 20.0905 57.3946V62.2625H58.2716V40.9434H43.421Z" fill="#32E0C4"/>
<path fill-rule="evenodd" clip-rule="evenodd" d="M32.0803 52.5872C32.5707 56.702 36.097 59.8935 40.3742 59.8935C44.9869 59.8935 48.7263 56.1816 48.7263 51.6028C48.7263 47.0239 44.9869 43.312 40.3742 43.312C40.3089 43.312 40.2437 43.3128 40.1787 43.3142C38.5842 47.2231 35.7138 50.4837 32.0803 52.5872ZM36.7947 51.6028C36.7947 49.6404 38.3973 48.0496 40.3742 48.0496C42.3511 48.0496 43.9536 49.6404 43.9536 51.6028C43.9536 53.5651 42.3511 55.156 40.3742 55.156C38.3973 55.156 36.7947 53.5651 36.7947 51.6028Z" fill="#32E0C4"/>
<path fill-rule="evenodd" clip-rule="evenodd" d="M22.4768 19.6243C13.2514 19.6243 5.77263 27.0481 5.77263 36.2058C5.77263 45.3635 13.2514 52.7873 22.4768 52.7873C31.7023 52.7873 39.1811 45.3635 39.1811 36.2058C39.1811 27.0481 31.7023 19.6243 22.4768 19.6243ZM1 36.2058C1 24.4316 10.6155 14.8867 22.4768 14.8867C34.3382 14.8867 43.9537 24.4316 43.9537 36.2058C43.9537 47.98 34.3382 57.5249 22.4768 57.5249C10.6155 57.5249 1 47.98 1 36.2058Z" fill="#222831"/>
<path fill-rule="evenodd" clip-rule="evenodd" d="M41.5641 36.5509C41.5662 36.4359 41.5673 36.3205 41.5673 36.205C41.5673 34.6984 41.3901 33.2328 41.0555 31.8277C41.4847 31.7357 41.9039 31.5632 42.2909 31.3059C43.9334 30.2137 44.3729 28.0067 43.2726 26.3763C42.1723 24.746 39.949 24.3097 38.3065 25.4019C38.2738 25.4236 38.2416 25.4458 38.2098 25.4684C37.3007 24.1582 36.2298 22.9671 35.0256 21.9237C35.2247 21.7632 35.433 21.6104 35.6503 21.4659C39.4826 18.9174 44.6705 19.9354 47.2377 23.7396C49.805 27.5437 48.7795 32.6935 44.9472 35.2419C43.8944 35.942 42.7392 36.373 41.5641 36.5509Z" fill="#222831"/>
<path fill-rule="evenodd" clip-rule="evenodd" d="M22.4769 24.3618C23.7948 24.3618 24.8632 25.4224 24.8632 26.7306V35.2246L31.3232 41.6371C32.2551 42.5622 32.2551 44.062 31.3232 44.9871C30.3913 45.9122 28.8804 45.9122 27.9485 44.9871L20.7895 37.8807C20.342 37.4365 20.0906 36.834 20.0906 36.2058V26.7306C20.0906 25.4224 21.159 24.3618 22.4769 24.3618Z" fill="#222831"/>
</svg>
