<svg width="162" height="160" viewBox="0 0 162 160" fill="none" xmlns="http://www.w3.org/2000/svg">
<path opacity="0.07" d="M21.3707 77.3043C21.3707 105.595 38.0067 118.957 58.5169 107.183C79.0271 95.4087 95.6424 62.9116 95.6424 34.6417C95.6424 6.35108 79.0064 -7.01065 58.4962 4.76334C37.986 16.5373 21.3707 49.0138 21.3707 77.3043Z" fill="url(#paint0_linear)"/>
<path opacity="0.4" d="M75.3809 17.8157C80.2494 15.0114 85.0766 13.568 89.5929 13.5474C94.0886 13.5268 98.1906 14.9495 101.65 17.7332C105.11 20.5169 107.845 24.579 109.709 29.7134C111.574 34.8478 112.548 40.9719 112.548 47.694L75.3809 69.015V17.8157Z" fill="url(#paint1_linear)"/>
<path opacity="0.2" d="M104.24 40.6007C104.24 50.7251 102.065 61.8805 97.9833 72.6441C93.902 83.4077 88.1012 93.3053 81.3266 101.079C74.552 108.853 67.0731 114.152 59.8634 116.317C52.6538 118.482 46.045 117.41 40.8449 113.224C35.6449 109.038 32.1229 101.945 30.6727 92.8517C29.2432 83.7376 29.9683 73.0153 32.7859 62.0454C35.6034 51.0756 40.3477 40.3326 46.4593 31.198C52.5709 22.0634 59.7391 14.9289 67.0938 10.7224V61.9423L104.24 40.6007Z" fill="url(#paint2_linear)"/>
<path opacity="0.15" d="M95.338 20.3201L108.846 12.567V15.3713L95.338 23.1244V20.3201Z" fill="white"/>
<path opacity="0.15" d="M95.338 25.9495L121.38 11V13.8043L95.338 28.7538V25.9495Z" fill="white"/>
<path opacity="0.15" d="M95.338 31.558L126.891 13.4331V16.2374L95.338 34.383V31.558Z" fill="white"/>
<path d="M91.7183 24.737C92.0539 27.3549 90.8776 30.5617 89.1081 31.9111C87.3386 33.2605 85.6196 32.2336 85.284 29.6156C84.9484 26.9977 86.1247 23.791 87.8942 22.4415C89.6842 21.0895 91.3827 22.1191 91.7183 24.737Z" fill="#FD724C"/>
<path opacity="0.3" d="M61.9793 28L0.34518 63.4251L0.324463 95.4066L56.5306 63.1158L61.9585 64.8891L61.9793 28Z" fill="url(#paint3_linear)"/>
<path d="M23.2656 60.0543V54.3733L3 66.7557V72.4367L23.2656 60.0543Z" fill="#FD724C"/>
<path opacity="0.15" d="M46.1304 44.9084L32.6227 52.6615V55.4658L46.1304 47.7127V44.9084Z" fill="white"/>
<path opacity="0.15" d="M46.1304 50.5168L21.7461 64.5178V67.3221L46.1304 53.3211V50.5168Z" fill="white"/>
<path opacity="0.15" d="M46.1304 56.1462L14.5779 74.2712V77.0755L46.1097 58.9505L46.1304 56.1462Z" fill="white"/>
<path d="M49.4452 45.9187C49.4452 48.5581 51.0197 49.7953 52.9464 48.6818C54.8731 47.5683 56.4477 44.5372 56.4477 41.8979C56.4477 39.2585 54.8731 38.0213 52.9464 39.1348C51.0197 40.2483 49.4452 43.2794 49.4452 45.9187Z" fill="#FD724C"/>
<path opacity="0.3" d="M109 39L62 66.0722V153L109 125.928V39Z" fill="url(#paint4_linear)"/>
<path opacity="0.15" d="M105 90L67 112.127V116L105 93.8729V90Z" fill="white"/>
<path opacity="0.15" d="M102 99L69 118.109V122L102 102.891V99Z" fill="white"/>
<path d="M88 115.134L121 96V105.866L88 125V115.134Z" fill="#2EB398"/>
<path d="M80 73.0789C80 77.1478 82.4665 79.0738 85.5 77.392C88.5335 75.683 91 71.0172 91 66.9211C91 62.8522 88.5335 60.9262 85.5 62.608C82.4665 64.317 80 69.0099 80 73.0789Z" fill="#2EB398"/>
<path d="M85.5 81.0999C90.3143 78.3504 94.2937 80.9365 94.9894 86.8439C95.1007 87.8784 94.3215 89.2395 93.3475 89.784L77.6525 98.7676C76.6785 99.3121 75.8993 98.8765 76.0106 97.7059C76.7063 90.9546 80.6857 83.8494 85.5 81.0999Z" fill="#2EB398"/>
<path opacity="0.2" d="M124.67 63.7981L133.537 58.705V55.7357L124.67 60.8288C123.945 61.2412 122.888 62.0866 121.997 63.3857C121.024 64.7672 120.34 66.5199 120.34 68.417C120.34 70.5202 120.878 71.7162 121.894 72.0461C122.847 72.3554 123.986 71.8193 124.67 71.4275L128.316 69.3242L128.337 69.3036C128.647 69.118 129.145 68.9325 129.538 69.0562C129.87 69.1593 130.222 69.4686 130.222 70.6439C130.222 71.8192 129.849 72.5203 129.559 72.9533C129.186 73.4895 128.689 73.8606 128.378 74.0256L128.337 74.0462L117.191 80.459V83.4283L128.275 77.0567C129.041 76.6649 130.139 75.8195 131.092 74.4998C132.128 73.0358 132.832 71.2007 132.832 69.1593C132.832 67.1179 132.128 66.0869 131.113 65.7982C130.16 65.5302 129.062 65.9219 128.295 66.3756L124.69 68.4582C124.173 68.7675 123.779 68.8912 123.51 68.8087C123.302 68.7469 122.93 68.4582 122.93 66.9529C122.93 65.9632 123.24 65.324 123.551 64.9116C123.924 64.3548 124.38 63.963 124.67 63.7981Z" fill="white"/>
<path d="M131.921 58.0659C131.921 60.7259 133.495 61.9837 135.422 60.8908C137.349 59.7774 138.923 56.7256 138.923 54.045C138.923 51.385 137.349 50.1272 135.422 51.2201C133.495 52.3336 131.921 55.4059 131.921 58.0659Z" fill="#FD724C"/>
<path d="M112.654 84.4594C112.654 87.1194 114.228 88.3772 116.155 87.2844C118.082 86.1709 119.656 83.1191 119.656 80.4385C119.656 77.7786 118.082 76.5208 116.155 77.6136C114.228 78.7271 112.654 81.7995 112.654 84.4594Z" fill="#FD724C"/>
<defs>
<linearGradient id="paint0_linear" x1="13.9151" y1="33.9494" x2="82.5547" y2="68.1603" gradientUnits="userSpaceOnUse">
<stop stop-color="white"/>
<stop offset="1" stop-color="white" stop-opacity="0"/>
</linearGradient>
<linearGradient id="paint1_linear" x1="59.5832" y1="29.5137" x2="101.12" y2="49.1655" gradientUnits="userSpaceOnUse">
<stop stop-color="white"/>
<stop offset="1" stop-color="white" stop-opacity="0"/>
</linearGradient>
<linearGradient id="paint2_linear" x1="40.1889" y1="43.7744" x2="70.4801" y2="75.1975" gradientUnits="userSpaceOnUse">
<stop stop-color="white"/>
<stop offset="1" stop-color="white" stop-opacity="0"/>
</linearGradient>
<linearGradient id="paint3_linear" x1="35.4985" y1="29.0422" x2="27.6021" y2="93.3917" gradientUnits="userSpaceOnUse">
<stop stop-color="white"/>
<stop offset="1" stop-color="white" stop-opacity="0"/>
</linearGradient>
<linearGradient id="paint4_linear" x1="56.9772" y1="46.6615" x2="98.5912" y2="118.879" gradientUnits="userSpaceOnUse">
<stop stop-color="white"/>
<stop offset="1" stop-color="white" stop-opacity="0"/>
</linearGradient>
</defs>
</svg>
