<svg width="160" height="160" viewBox="0 0 160 160" fill="none" xmlns="http://www.w3.org/2000/svg">
<g clip-path="url(#clip0)">
<path opacity="0.3" d="M162.895 98.9935C180.996 83.2378 183.537 98.2317 184.761 98.4733C184.761 98.4733 185.299 102.096 184.761 115.307L8.3125 217.329V145.536C28.3609 109.547 41.64 84.4083 54.715 96.0022C77.3414 116.087 88.3578 129.576 115.268 101.706C131.199 85.2073 141.159 117.908 162.895 98.9935Z" fill="url(#paint0_linear)"/>
<path opacity="0.3" d="M139.582 111.665C157.684 95.9092 160.224 110.903 161.448 111.145C161.448 111.145 161.986 114.768 161.448 127.978L-15 230V158.207C13.5611 116.663 32.3855 124.392 48.7061 130.393C64.6929 136.265 70.5535 124.002 90.7874 106.518C107.442 92.1189 117.846 130.561 139.582 111.665Z" fill="url(#paint1_linear)"/>
<path d="M42.8457 95.0917C42.8457 93.6053 43.7174 91.9146 44.7745 91.3014C45.8316 90.6883 46.7033 91.3757 46.7033 92.8621C46.7033 94.3485 45.8316 96.0393 44.7745 96.6524C43.6988 97.2656 42.8457 96.5781 42.8457 95.0917Z" fill="#FD724C"/>
<path d="M93.9958 105.088C93.9958 103.657 94.8861 101.985 95.9988 101.353C97.1116 100.721 98.0018 101.353 98.0018 102.784C98.0018 104.214 97.1116 105.887 95.9988 106.518C94.9046 107.15 93.9958 106.518 93.9958 105.088Z" fill="#2EB398"/>
<path opacity="0.07" d="M55.1789 0L20.9426 19.8061V87.2138L55.1789 67.4263V0Z" fill="white"/>
<path opacity="0.3" d="M61.8556 5.79694L27.6194 25.6031V93.0108L42.4192 84.464L44.7375 86.3592L47.0558 81.77L61.8556 73.2232V5.79694Z" fill="url(#paint2_linear)"/>
<path opacity="0.1" d="M32.1074 46.6168C32.1074 48.7721 32.4227 50.7416 33.0162 52.3952C33.6097 54.0488 34.4813 55.3494 35.5756 56.2412C36.6698 57.133 37.9866 57.5789 39.4146 57.5789C40.8427 57.5789 42.4005 57.1144 43.9399 56.204V39.7609L32.1074 46.6168Z" fill="white"/>
<path opacity="0.3" d="M43.9585 56.2041C46.0357 54.9964 48.0757 53.0641 49.8747 50.5744C51.6737 48.0847 53.1759 45.1491 54.2145 42.0463C55.2531 38.9434 55.8095 35.7848 55.8095 32.905C55.8095 30.0251 55.2531 27.4982 54.2145 25.6031L43.9585 39.7609V56.2041Z" fill="white"/>
<path d="M32.1074 46.6169C32.1074 42.9938 32.9605 38.9806 34.5555 35.1903C36.1505 31.4 38.376 28.0556 40.8798 25.6588C43.4021 23.262 46.0727 21.9614 48.4837 21.9614C50.8947 21.9614 52.8977 23.2434 54.2145 25.6217L43.9584 39.7795L32.1074 46.6169Z" fill="#FD724C"/>
<path opacity="0.15" d="M57.3859 56.9287L36.5215 68.9871V71.5139L57.3859 59.4556V56.9287Z" fill="white"/>
<path opacity="0.15" d="M57.3859 61.8709L32.0889 76.4933V79.0201L57.4044 64.3978L57.3859 61.8709Z" fill="white"/>
<path opacity="0.15" d="M57.4043 66.7946L41.0095 76.2703V78.7971L57.4043 69.3214V66.7946Z" fill="white"/>
<path opacity="0.07" d="M106.533 10.0703L72.2969 29.8764V97.2841L106.533 77.4966V10.0703Z" fill="white"/>
<path opacity="0.3" d="M113.136 15.923L78.8994 35.7105V103.118L93.6807 94.5901L95.999 96.4852L98.3358 91.896L113.136 83.3307V15.923Z" fill="url(#paint3_linear)"/>
<path opacity="0.1" d="M83.3691 56.7244C83.3691 59.6042 83.9255 62.1311 84.9641 64.0263C86.0027 65.9214 87.5049 67.1291 89.3039 67.5378L95.2202 49.8684L83.3691 56.7244Z" fill="white"/>
<path opacity="0.3" d="M89.2854 67.5378C91.548 68.0394 94.163 67.2405 96.7595 65.2896C99.3374 63.3201 101.748 60.2916 103.584 56.6685L95.2016 49.8869L89.2854 67.5378Z" fill="white"/>
<path d="M83.3691 56.7243C83.3691 54.0116 83.8513 51.076 84.7601 48.159C85.6689 45.2419 87.0042 42.4364 88.6177 40.0024C90.2312 37.5684 92.1044 35.5618 94.0332 34.1683C95.9805 32.7748 97.9279 32.0502 99.7269 32.0502C101.526 32.0502 103.121 32.7563 104.345 34.1312C105.587 35.5061 106.422 37.4941 106.812 39.9281C107.201 42.362 107.09 45.149 106.533 48.0661C105.977 50.9831 104.957 53.9187 103.566 56.6314L95.1831 49.8497L83.3691 56.7243Z" fill="#2EB398"/>
<path opacity="0.15" d="M108.666 67.0362L84.9827 80.7295V83.2564L108.666 69.563V67.0362Z" fill="white"/>
<path opacity="0.15" d="M108.666 71.9784L84.0737 86.2106V88.7374L108.666 74.5053V71.9784Z" fill="white"/>
<path opacity="0.15" d="M108.666 76.9206L92.2712 86.3963V88.9232L108.666 79.4475V76.9206Z" fill="white"/>
</g>
<defs>
<linearGradient id="paint0_linear" x1="64.4202" y1="55.6704" x2="86.9643" y2="127.171" gradientUnits="userSpaceOnUse">
<stop stop-color="white"/>
<stop offset="1" stop-color="white" stop-opacity="0"/>
</linearGradient>
<linearGradient id="paint1_linear" x1="54.6767" y1="86.4642" x2="67.4829" y2="144.327" gradientUnits="userSpaceOnUse">
<stop stop-color="white"/>
<stop offset="1" stop-color="white" stop-opacity="0"/>
</linearGradient>
<linearGradient id="paint2_linear" x1="44.7375" y1="15.2332" x2="44.7375" y2="106.012" gradientUnits="userSpaceOnUse">
<stop stop-color="white" stop-opacity="0"/>
<stop offset="1" stop-color="white"/>
</linearGradient>
<linearGradient id="paint3_linear" x1="96.0175" y1="26.2857" x2="96.0175" y2="112.245" gradientUnits="userSpaceOnUse">
<stop stop-color="white" stop-opacity="0"/>
<stop offset="1" stop-color="white"/>
</linearGradient>
<clipPath id="clip0">
<rect width="160" height="160" fill="white"/>
</clipPath>
</defs>
</svg>
