<svg width="160" height="160" viewBox="0 0 160 160" fill="none" xmlns="http://www.w3.org/2000/svg">
<g clip-path="url(#clip0)">
<path d="M74.0037 96.8228C70.6768 100.956 66.9824 105.492 64.3906 108.664C61.5085 100.052 65.3577 88.019 69.6517 79.0229C70.6962 84.6166 72.1275 90.5371 74.0037 96.8228Z" fill="#2EB398"/>
<path d="M94.2746 64.9522C98.5493 69.0273 102.379 76.6393 99.4971 88.538C96.9052 88.3265 93.2302 88.0382 89.9033 87.7306C91.7988 79.2728 93.2302 71.7184 94.2746 64.9522Z" fill="#2EB398"/>
<path opacity="0.2" d="M85.087 107.337C108.975 16.1083 89.323 8.36176 81.8956 5.24774C74.4681 16.8965 54.8163 47.1908 78.7428 110.97L85.087 107.337Z" fill="url(#paint0_linear)"/>
<path opacity="0.1" d="M78.0464 102.09C101.954 10.8798 82.3017 3.13324 74.8549 0C67.4274 11.6487 47.7756 41.9431 71.7021 105.723L78.0464 102.09Z" fill="url(#paint1_linear)"/>
<path opacity="0.15" d="M78.7428 110.97C54.8163 47.1908 74.4681 16.8965 81.8956 5.24774V109.164L78.7428 110.97Z" fill="url(#paint2_linear)"/>
<path opacity="0.1" d="M74.7582 37.3682C74.7582 42.9235 78.0464 45.5377 82.1083 43.2118C86.1703 40.8859 89.4585 34.4849 89.4585 28.9296C89.4585 23.3744 86.1703 20.7602 82.1083 23.0861C78.0464 25.412 74.7582 31.813 74.7582 37.3682Z" fill="white"/>
<path opacity="0.1" d="M81.9536 173.481C77.9691 182.189 72.031 189.686 65.3966 193.492C53.4043 200.373 43.6751 192.608 43.6558 176.153C43.6558 159.699 53.385 140.765 65.3772 133.883C69.3231 131.615 73.0175 130.942 76.209 131.634C77.8917 128.905 78.7041 125.445 79.4198 122.408C80.2515 118.909 80.9478 115.93 82.6886 115.18C84.6809 114.315 85.5707 116.506 86.8279 119.544C87.5629 121.331 88.4333 123.446 89.7099 125.387C91.0832 123.945 92.5339 122.754 94.062 121.889C100.464 118.217 105.803 121.389 107.06 128.963C107.93 128.309 108.801 127.713 109.691 127.194C119.961 121.312 128.279 127.982 128.279 142.13C128.279 156.258 119.961 172.482 109.71 178.364C99.7486 184.073 91.6055 177.941 91.1413 164.658C89.265 168.118 86.7699 171.021 84.0039 172.597C83.3269 172.982 82.6306 173.27 81.9536 173.481Z" fill="url(#paint3_linear)"/>
<path opacity="0.3" d="M56.9052 68.6814L4.52606 98.7259L4.50671 125.849L52.2437 98.4567L56.8665 99.9561L56.9052 68.6814Z" fill="url(#paint4_linear)"/>
<path d="M19.7679 103.493V96.1308L0 107.472V114.834L19.7679 103.493Z" fill="#FD724C"/>
<path opacity="0.1" d="M43.4236 83.002L31.9536 89.5953V91.9788L43.4236 85.4048V83.002Z" fill="white"/>
<path opacity="0.1" d="M43.4235 87.7691L22.7078 99.6485V102.032L43.4235 90.1527V87.7691Z" fill="white"/>
<path opacity="0.15" d="M43.4236 92.5362L16.6344 107.914V110.298L43.4236 94.9198V92.5362Z" fill="white"/>
<path d="M46.2475 83.867C46.2475 86.0968 47.5821 87.154 49.2262 86.2121C50.8703 85.2702 52.205 82.6944 52.205 80.4646C52.205 78.2348 50.8703 77.1776 49.2262 78.1195C47.5821 79.0614 46.2475 81.6372 46.2475 83.867Z" fill="#FD724C"/>
<path opacity="0.3" d="M102.07 30.3713L154.429 0.346069L154.41 27.4688L106.673 54.8413L102.05 61.646L102.07 30.3713Z" fill="url(#paint5_linear)"/>
<path d="M160 10.9183V3.55612L140.232 14.8973V22.2594L160 10.9183Z" fill="#FD724C"/>
<path opacity="0.15" d="M115.532 29.2564L127.002 22.6823V25.0659L115.532 31.6399V29.2564Z" fill="white"/>
<path opacity="0.15" d="M115.513 34.0235L137.621 21.3368V23.7203L115.513 36.4071V34.0235Z" fill="white"/>
<path opacity="0.15" d="M115.513 38.7907L142.302 23.4128V25.7964L115.513 41.1743V38.7907Z" fill="white"/>
<path d="M112.689 33.3507C112.689 35.5805 111.354 38.1563 109.71 39.0982C108.066 40.0401 106.731 38.9829 106.731 36.7531C106.731 34.5233 108.066 31.9475 109.71 31.0056C111.373 30.0829 112.708 31.1209 112.689 33.3507Z" fill="#FD724C"/>
<path opacity="0.2" d="M109.033 59.3201L140.309 41.3857V57.5709L109.033 75.5053V59.3201Z" fill="url(#paint6_linear)"/>
<path opacity="0.15" d="M132.302 49.8627L121.586 56.0138V57.9553L132.302 51.8041V49.8627Z" fill="white"/>
<path opacity="0.15" d="M132.282 53.7648L112.244 65.2598V67.2205L132.282 55.7255V53.7648Z" fill="white"/>
<path d="M133.946 50.4394C133.946 51.7657 134.739 52.4 135.725 51.8426C136.712 51.2852 137.505 49.7474 137.505 48.4018C137.505 47.0755 136.712 46.4411 135.725 46.9986C134.739 47.5752 133.946 49.113 133.946 50.4394Z" fill="#FD724C"/>
<path opacity="0.2" d="M16.1315 71.5454L47.4081 53.611V69.7962L16.1315 87.7498V71.5454Z" fill="url(#paint7_linear)"/>
<path opacity="0.15" d="M39.4004 62.1073L28.6847 68.2584V70.1999L39.4004 64.0488V62.1073Z" fill="white"/>
<path opacity="0.15" d="M39.4003 66.0094L19.3616 77.5043V79.465L39.4003 67.9701V66.0094Z" fill="white"/>
<path d="M41.0445 62.684C41.0445 64.0104 41.8375 64.6447 42.824 64.0872C43.8105 63.5298 44.6035 61.992 44.6035 60.6464C44.6035 59.3201 43.8105 58.6858 42.824 59.2432C41.8375 59.8007 41.0445 61.3577 41.0445 62.684Z" fill="#FD724C"/>
</g>
<defs>
<linearGradient id="paint0_linear" x1="54.0177" y1="8.4822" x2="113.584" y2="112.326" gradientUnits="userSpaceOnUse">
<stop stop-color="white"/>
<stop offset="1" stop-color="white" stop-opacity="0"/>
</linearGradient>
<linearGradient id="paint1_linear" x1="46.9787" y1="3.23594" x2="106.545" y2="107.079" gradientUnits="userSpaceOnUse">
<stop stop-color="white"/>
<stop offset="1" stop-color="white" stop-opacity="0"/>
</linearGradient>
<linearGradient id="paint2_linear" x1="65.23" y1="31.056" x2="111.204" y2="114.528" gradientUnits="userSpaceOnUse">
<stop stop-color="white" stop-opacity="0"/>
<stop offset="1" stop-color="white"/>
</linearGradient>
<linearGradient id="paint3_linear" x1="84.5" y1="116.5" x2="91.8192" y2="150.039" gradientUnits="userSpaceOnUse">
<stop stop-color="white"/>
<stop offset="1" stop-color="white" stop-opacity="0"/>
</linearGradient>
<linearGradient id="paint4_linear" x1="34.4012" y1="69.5596" x2="27.7139" y2="124.135" gradientUnits="userSpaceOnUse">
<stop stop-color="white"/>
<stop offset="1" stop-color="white" stop-opacity="0"/>
</linearGradient>
<linearGradient id="paint5_linear" x1="113.482" y1="19.5108" x2="140.39" y2="40.7113" gradientUnits="userSpaceOnUse">
<stop stop-color="white"/>
<stop offset="1" stop-color="white" stop-opacity="0"/>
</linearGradient>
<linearGradient id="paint6_linear" x1="121.141" y1="52.3667" x2="128.128" y2="64.5483" gradientUnits="userSpaceOnUse">
<stop stop-color="white"/>
<stop offset="1" stop-color="white" stop-opacity="0"/>
</linearGradient>
<linearGradient id="paint7_linear" x1="28.2463" y1="64.6068" x2="35.2342" y2="76.7887" gradientUnits="userSpaceOnUse">
<stop stop-color="white"/>
<stop offset="1" stop-color="white" stop-opacity="0"/>
</linearGradient>
<clipPath id="clip0">
<rect width="160" height="160" fill="white"/>
</clipPath>
</defs>
</svg>
