<svg width="15" height="15" viewBox="0 0 15 15" fill="none" xmlns="http://www.w3.org/2000/svg">
<path d="M14.7559 13.5773C15.0814 13.9028 15.0814 14.4304 14.7559 14.7559C14.4304 15.0814 13.9028 15.0814 13.5773 14.7559L10.7546 11.9333C9.62575 12.8108 8.20721 13.3334 6.66679 13.3334C2.985 13.3334 0 10.3486 0 6.66668C0 2.98474 2.98479 0 6.66679 0C10.3488 0 13.3336 2.98474 13.3336 6.66668C13.3336 8.20726 12.811 9.62574 11.9335 10.7545L14.7559 13.5773ZM6.66661 11.6667C9.42804 11.6667 11.6666 9.42813 11.6666 6.66675C11.6666 3.90536 9.42804 1.66683 6.66661 1.66683C3.90518 1.66683 1.66661 3.90536 1.66661 6.66675C1.66661 9.42813 3.90518 11.6667 6.66661 11.6667Z" fill="white"/>
</svg>
