<svg width="129" height="129" viewBox="0 0 129 129" fill="none" xmlns="http://www.w3.org/2000/svg">
<path fill-rule="evenodd" clip-rule="evenodd" d="M86.8599 15.6951H79.9799V9.93311H77.4859V15.6951H70.5629C70.2619 15.6951 70.0469 15.9101 70.0469 16.2111V39.9041C70.0469 40.2051 70.2619 40.4201 70.5629 40.4201H77.4859V46.2251H79.9799V40.4631H86.8599C87.1609 40.4631 87.3759 40.2481 87.3759 39.9471V16.2111C87.4189 15.9101 87.1609 15.6951 86.8599 15.6951Z" fill="#2EB398"/>
<path d="M28.8958 111.757C28.5518 111.327 28.1218 111.026 27.6058 110.811C27.0898 110.596 26.5738 110.51 26.0148 110.51C25.3698 110.51 24.8108 110.639 24.2948 110.854C23.7788 111.069 23.3058 111.37 22.9618 111.757C22.5748 112.144 22.3168 112.617 22.1018 113.133C21.8868 113.649 21.8008 114.251 21.8008 114.896C21.8008 115.412 21.8868 115.928 22.1018 116.444C22.2738 116.96 22.5748 117.39 22.9188 117.82C23.3058 118.207 23.7358 118.551 24.2518 118.809C24.7678 119.067 25.3698 119.196 26.0148 119.196C26.4878 119.196 26.9178 119.153 27.2618 119.024C27.6058 118.895 27.9068 118.766 28.1648 118.594C28.4228 118.422 28.6378 118.293 28.7668 118.121C28.9388 117.949 29.0248 117.863 29.1108 117.777L28.1648 117.089C27.9068 117.433 27.6058 117.691 27.2618 117.906C26.9178 118.078 26.4878 118.207 26.0148 118.207C25.5418 118.207 25.1118 118.121 24.7248 117.949C24.3378 117.777 24.0368 117.562 23.7788 117.261C23.5208 116.96 23.3058 116.616 23.1768 116.229C23.0478 115.842 22.9618 115.455 22.9618 115.025C22.9618 114.552 23.0478 114.122 23.1768 113.735C23.3058 113.348 23.5208 112.961 23.7788 112.66C24.0368 112.359 24.3808 112.144 24.7248 111.929C25.1118 111.757 25.4988 111.671 25.9718 111.671C26.3588 111.671 26.7028 111.757 27.0898 111.929C27.4338 112.101 27.7348 112.316 27.9498 112.617L28.8958 111.757Z" fill="white"/>
<path d="M36.2919 118.895H37.5819L38.3989 116.874H42.3119L43.1289 118.895H44.4189L40.9359 110.725H39.9469L36.2919 118.895ZM38.7859 115.885L40.3339 112.144H40.3769L41.8819 115.885H38.7859Z" fill="white"/>
<path d="M52.4169 118.895H53.5349V115.283H55.2979C55.8139 115.283 56.2439 115.197 56.5879 115.068C56.9319 114.939 57.1899 114.724 57.4049 114.509C57.6199 114.294 57.7489 114.036 57.8349 113.778C57.9209 113.52 57.9639 113.262 57.9639 113.004C57.9639 112.746 57.9209 112.488 57.8349 112.23C57.7489 111.972 57.6199 111.714 57.4049 111.499C57.1899 111.284 56.9319 111.112 56.5879 110.94C56.2439 110.811 55.8139 110.725 55.2979 110.725H52.4169V118.895ZM53.4919 111.671H54.9539C55.1689 111.671 55.3839 111.671 55.5989 111.714C55.8139 111.757 55.9859 111.8 56.1579 111.886C56.3299 111.972 56.4589 112.101 56.5449 112.273C56.6309 112.445 56.6739 112.66 56.6739 112.961C56.6739 113.219 56.6309 113.477 56.5449 113.649C56.4589 113.821 56.3299 113.95 56.1579 114.036C55.9859 114.122 55.8139 114.208 55.5989 114.208C55.3839 114.251 55.1689 114.251 54.9539 114.251H53.4919V111.671Z" fill="white"/>
<path d="M66.1769 118.895H67.2949V110.725H66.1769V118.895Z" fill="white"/>
<path d="M78.045 118.895H79.163V111.757H81.786V110.725H75.422V111.757H78.045V118.895Z" fill="white"/>
<path d="M87.8059 118.895H89.0959L89.9129 116.874H93.8259L94.6429 118.895H95.9329L92.4499 110.725H91.4609L87.8059 118.895ZM90.2999 115.885L91.8479 112.144H91.8909L93.3959 115.885H90.2999Z" fill="white"/>
<path d="M103.931 118.895H108.79V117.82H105.049V110.682H103.931V118.895Z" fill="white"/>
<path d="M10.8359 98.9433H13.0719L14.4479 95.4603H21.1129L22.5319 98.9433H24.7679L18.7479 84.9253H17.0279L10.8359 98.9433ZM15.1359 93.7833L17.8019 87.3333H17.8449L20.4679 93.7833H15.1359Z" fill="white"/>
<path d="M28.552 98.9433H30.444V87.4193H30.53L38.356 98.9433H40.764V84.9253H38.872V96.4493H38.829L31.089 84.9253H28.595V98.9433H28.552Z" fill="white"/>
<path d="M53.2768 91.0745V92.8375H56.3728V96.7505C55.9428 97.0085 55.4268 97.1805 54.8248 97.3095C54.2228 97.4385 53.5778 97.4815 52.9328 97.4815C52.1588 97.4815 51.4278 97.3525 50.7828 97.0515C50.1378 96.7505 49.5358 96.3635 49.0628 95.8905C48.5898 95.3745 48.2028 94.8155 47.9018 94.1275C47.6438 93.4395 47.4718 92.7085 47.4718 91.9345C47.4718 91.1605 47.6008 90.4295 47.8588 89.7845C48.1168 89.0965 48.4608 88.4945 48.9338 88.0215C49.4068 87.5055 49.9658 87.1185 50.6108 86.8175C51.2558 86.5165 51.9868 86.3875 52.8038 86.3875C53.5348 86.3875 54.1798 86.5165 54.8248 86.7315C55.4698 86.9465 56.0718 87.3335 56.6738 87.8925L58.0068 86.4305C57.4478 85.8715 56.7598 85.3985 55.9428 85.0975C55.1258 84.7535 54.0508 84.6245 52.7608 84.6245C51.6858 84.6245 50.6968 84.7965 49.7938 85.1835C48.8908 85.5705 48.1168 86.0865 47.4718 86.7315C46.8268 87.3765 46.3108 88.1505 45.9668 89.0535C45.6228 89.9565 45.4078 90.9025 45.4078 91.9775C45.4078 92.9665 45.5798 93.9125 45.9238 94.8155C46.2678 95.7185 46.7408 96.4925 47.3858 97.1805C48.0308 97.8685 48.8048 98.3845 49.7508 98.7715C50.6968 99.1585 51.7288 99.3735 52.9328 99.3735C53.3628 99.3735 53.7928 99.3305 54.3088 99.2875C54.7818 99.2445 55.2548 99.1585 55.7278 99.0295C56.2008 98.9005 56.6308 98.7715 57.1038 98.6425C57.5338 98.4705 57.9208 98.2985 58.2648 98.0835V91.1605H53.2768V91.0745Z" fill="white"/>
<path d="M63.7259 98.9433H73.1428V97.1803H65.6179V92.6653H72.2828V90.9023H65.6179V86.7313H72.7558V84.9683H63.6829V98.9433H63.7259Z" fill="white"/>
<path d="M77.83 98.9433H86.172V97.1803H79.722V84.9253H77.83V98.9433Z" fill="white"/>
<path d="M99.4591 98.7281C100.362 98.3411 101.136 97.8251 101.781 97.1801C102.426 96.5351 102.942 95.7611 103.286 94.8581C103.63 93.9551 103.845 93.0091 103.845 91.9341C103.845 90.9021 103.673 89.9131 103.286 89.0101C102.942 88.1071 102.426 87.3331 101.781 86.6881C101.136 86.0431 100.362 85.5271 99.4591 85.1401C98.5561 84.7531 97.567 84.5811 96.492 84.5811C95.417 84.5811 94.428 84.7531 93.525 85.1401C92.622 85.5271 91.848 86.0431 91.203 86.6881C90.558 87.3331 90.042 88.1071 89.698 89.0101C89.354 89.9131 89.139 90.8591 89.139 91.9341C89.139 92.9661 89.311 93.9551 89.698 94.8581C90.042 95.7611 90.558 96.5351 91.203 97.1801C91.848 97.8251 92.622 98.3411 93.525 98.7281C94.428 99.1151 95.417 99.2871 96.492 99.2871C97.567 99.2871 98.5561 99.0721 99.4591 98.7281ZM94.342 97.0511C93.697 96.7501 93.138 96.3631 92.665 95.8471C92.192 95.3311 91.848 94.7721 91.59 94.0841C91.332 93.3961 91.203 92.6651 91.203 91.9341C91.203 91.1601 91.332 90.4291 91.59 89.7841C91.848 89.0961 92.192 88.4941 92.665 88.0211C93.138 87.5051 93.697 87.1181 94.342 86.8171C94.987 86.5161 95.718 86.3871 96.535 86.3871C97.3521 86.3871 98.0831 86.5161 98.7281 86.8171C99.3731 87.1181 99.9321 87.5051 100.405 88.0211C100.878 88.5371 101.222 89.0961 101.48 89.7841C101.738 90.4721 101.867 91.2031 101.867 91.9341C101.867 92.7081 101.738 93.4391 101.48 94.0841C101.222 94.7721 100.878 95.3741 100.405 95.8471C99.9321 96.3631 99.3731 96.7501 98.7281 97.0511C98.0831 97.3521 97.3521 97.4811 96.535 97.4811C95.718 97.4811 94.987 97.3521 94.342 97.0511Z" fill="white"/>
<path d="M112.015 98.9433H113.778L119.325 84.9253H117.261L112.961 96.3203H112.918L108.79 84.9253H106.64L112.015 98.9433Z" fill="white"/>
<path fill-rule="evenodd" clip-rule="evenodd" d="M95.2019 47.9021C89.6119 59.0821 78.0449 66.7361 64.7149 66.7361C50.9979 66.7361 39.1729 58.6091 33.7549 46.9131L29.8849 48.7621C35.9909 61.9201 49.2779 71.0361 64.7149 71.0361C79.7219 71.0361 92.7079 62.4361 99.0289 49.8801L95.2019 47.9021Z" fill="white"/>
<path fill-rule="evenodd" clip-rule="evenodd" d="M61.2748 22.3172H54.3518V16.5122H51.8578V22.2742H44.9348C44.6338 22.2742 44.4188 22.4892 44.4188 22.7902V37.4102C44.4188 37.7112 44.6338 37.9262 44.9348 37.9262H51.8578V43.6882H54.3518V37.9692H61.2748C61.5758 37.9692 61.7908 37.7542 61.7908 37.4532V22.8332C61.8338 22.5322 61.5758 22.3172 61.2748 22.3172Z" fill="#FD724C"/>
</svg>
